HIERARCHY
ROOT Hips
{
	OFFSET 0.00 0.00 0.00
	CHANNELS 6 Xposition Yposition Zposition Xrotation Yrotation Zrotation
	JOINT Spine
	{
		OFFSET 0.00000 0.84964 1.27446
		CHANNELS 3 Xrotation Yrotation Zrotation
		JOINT Spine1
		{
			OFFSET 0.00000 0.29508 1.67346
			CHANNELS 3 Xrotation Yrotation Zrotation
			JOINT Spine2
			{
				OFFSET 0.00000 0.14810 1.69281
				CHANNELS 3 Xrotation Yrotation Zrotation
				JOINT Spine3
				{
					OFFSET 0.00000 0.00000 1.69928
					CHANNELS 3 Xrotation Yrotation Zrotation
					JOINT Neck
					{
						OFFSET 0.00000 -0.63723 4.46061
						CHANNELS 3 Xrotation Yrotation Zrotation
						JOINT Head
						{
							OFFSET 0.00000 -0.40573 2.30101
							CHANNELS 3 Xrotation Yrotation Zrotation
							End Site
							{
								OFFSET 0.00000 0.00000 2.75071
							}
						}
					}
					JOINT RightShoulder
					{
						OFFSET -0.72014 -1.20022 3.88874
						CHANNELS 3 Xrotation Yrotation Zrotation
						JOINT RightArm
						{
							OFFSET -3.57668 0.00000 0.00000
							CHANNELS 3 Xrotation Yrotation Zrotation
							JOINT RightForeArm
							{
								OFFSET -5.92485 0.00000 0.00000
								CHANNELS 3 Xrotation Yrotation Zrotation
								JOINT RightHand
								{
									OFFSET -6.63013 0.00000 0.00000
									CHANNELS 3 Xrotation Yrotation Zrotation
									JOINT RightHandEnd
									{
										OFFSET -1.65321 0.00000 0.00000
										CHANNELS 3 Xrotation Yrotation Zrotation
										End Site
										{
											OFFSET -1.65321 0.00000 0.00000
										}
									}
									JOINT RightHandThumb1
									{
										OFFSET -0.66129 -1.10214 -0.44086
										CHANNELS 3 Yrotation Xrotation Zrotation
										End Site
										{
											OFFSET -1.59688 -0.42788 0.00000
										}
									}
								}
							}
						}
					}
					JOINT LeftShoulder
					{
						OFFSET 0.72014 -1.20022 3.88874
						CHANNELS 3 Xrotation Yrotation Zrotation
						JOINT LeftArm
						{
							OFFSET 3.57668 0.00000 0.00000
							CHANNELS 3 Xrotation Yrotation Zrotation
							JOINT LeftForeArm
							{
								OFFSET 5.92485 0.00000 0.00000
								CHANNELS 3 Xrotation Yrotation Zrotation
								JOINT LeftHand
								{
									OFFSET 6.63013 0.00000 0.00000
									CHANNELS 3 Xrotation Yrotation Zrotation
									JOINT LeftHandEnd
									{
										OFFSET 1.65321 0.00000 0.00000
										CHANNELS 3 Xrotation Yrotation Zrotation
										End Site
										{
											OFFSET 1.65321 0.00000 0.00000
										}
									}
									JOINT LeftHandThumb1
									{
										OFFSET 0.66129 -1.10214 -0.44086
										CHANNELS 3 Yrotation Xrotation Zrotation
										End Site
										{
											OFFSET 1.59688 -0.42788 0.00000
										}
									}
								}
							}
						}
					}
				}
			}
		}
	}
	JOINT RightUpLeg
	{
		OFFSET -2.13640 0.00000 -0.62412
		CHANNELS 3 Xrotation Yrotation Zrotation
		JOINT RightLeg
		{
			OFFSET 0.00000 0.00000 -11.49360
			CHANNELS 3 Xrotation Yrotation Zrotation
			JOINT RightFoot
			{
				OFFSET 0.00000 0.00000 -8.79036
				CHANNELS 3 Xrotation Yrotation Zrotation
				JOINT RightToeBase
				{
					OFFSET 0.00000 -3.94625 -1.43632
					CHANNELS 3 Xrotation Yrotation Zrotation
					End Site
					{
						OFFSET 0.00000 -1.72833 -0.00000
					}
				}
			}
		}
	}
	JOINT LeftUpLeg
	{
		OFFSET 2.13640 0.00000 -0.62412
		CHANNELS 3 Xrotation Yrotation Zrotation
		JOINT LeftLeg
		{
			OFFSET 0.00000 0.00000 -11.49360
			CHANNELS 3 Xrotation Yrotation Zrotation
			JOINT LeftFoot
			{
				OFFSET 0.00000 0.00000 -8.79036
				CHANNELS 3 Xrotation Yrotation Zrotation
				JOINT LeftToeBase
				{
					OFFSET 0.00000 -3.94625 -1.43632
					CHANNELS 3 Xrotation Yrotation Zrotation
					End Site
					{
						OFFSET 0.00000 -1.72833 -0.00000
					}
				}
			}
		}
	}
}
MOTION
Frames: 9
Frame Time: 0.008342
 -2.7297 0.0733 23.0125 0.5610 -2.9212 107.4201 5.4690 -6.1427 -0.1697 0.9674 -2.6189 0.2949 5.2572 0.9575 16.1951 1.6450 6.1602 0.4101 -5.9708 8.8290 -0.0060 -6.8950 -3.8635 -10.8128 10.5822 -11.0019 7.1565 35.8578 -43.0386 34.0858 -0.0000 0.0001 77.8412 11.4349 31.3768 1.3850 0.0000 -0.0000 0.0000 0.0000 0.0000 -0.0000 3.3685 17.4525 3.4217 26.7178 58.9631 -17.3775 -0.0000 -0.0001 -71.2508 -0.6663 -26.3259 3.0228 0.0000 -0.0000 -0.0000 0.0000 -0.0000 0.0000 -0.1213 19.8959 -56.1929 28.5657 0.0000 0.0000 -7.4660 13.2932 -14.8868 1.1823 0.0000 0.0000 -6.6378 -2.8703 -4.2335 30.8026 0.0000 0.0000 -20.0564 -2.8369 11.1516 -4.1734 0.0000 -0.0000
 -2.7842 0.1679 23.0342 0.5165 -2.6469 107.6858 5.3990 -5.9559 -0.2121 0.9387 -2.6277 0.2559 5.2458 0.7714 15.9024 1.5900 5.9789 0.4514 -6.0237 8.9187 0.0062 -6.9742 -3.7744 -10.7861 10.5845 -11.1628 6.9813 35.5525 -43.4444 33.8130 -0.0000 0.0001 77.2667 11.6674 31.4326 1.7566 0.0000 -0.0000 0.0000 -0.0000 -0.0000 0.0000 3.4834 17.5437 3.3067 26.7179 58.4309 -17.3589 -0.0000 -0.0001 -70.8571 -0.5612 -26.3170 3.0456 0.0000 0.0000 0.0000 0.0000 -0.0000 -0.0000 0.0515 19.7624 -57.2437 27.3604 0.0000 0.0000 -7.2213 14.0092 -14.0878 0.9351 0.0000 0.0000 -6.8316 -2.5989 -4.1724 30.3941 0.0000 0.0000 -19.8514 -3.0152 10.8092 -4.1746 0.0000 -0.0000
 -2.8364 0.2602 23.0544 0.4771 -2.3837 107.9149 5.3238 -5.7916 -0.2582 0.9135 -2.5708 0.2679 5.2412 0.5219 15.6078 1.5400 5.8204 0.4954 -6.0565 9.0119 0.0203 -7.0454 -3.6815 -10.7795 10.6088 -11.2726 6.8243 35.2349 -43.9072 33.5409 -0.0000 0.0001 76.6462 11.8961 31.4990 2.1051 0.0000 -0.0000 -0.0000 0.0000 0.0000 0.0000 3.5787 17.6387 3.2063 26.7287 57.8848 -17.3814 -0.0000 -0.0001 -70.4257 -0.4376 -26.3298 3.0616 0.0000 -0.0000 0.0000 -0.0000 0.0000 -0.0000 0.2073 19.6330 -58.1416 26.2112 0.0000 0.0000 -7.1162 14.7714 -13.0088 0.7357 0.0000 0.0000 -7.0014 -2.3444 -3.9866 29.9678 0.0000 0.0000 -19.6341 -3.2327 10.4161 -4.1631 0.0000 -0.0000
 -2.8862 0.3499 23.0734 0.4456 -2.1302 108.1093 5.2436 -5.6034 -0.2871 0.8979 -2.5801 0.2403 5.2267 0.3399 15.3799 1.4952 5.6515 0.5359 -6.0739 9.1035 0.0324 -7.1034 -3.5854 -10.7890 10.6492 -11.3375 6.6836 34.9097 -44.4217 33.2709 -0.0000 0.0001 75.9780 12.1190 31.5678 2.4232 -0.0000 -0.0000 0.0000 0.0000 -0.0000 0.0000 3.6550 17.7308 3.1176 26.7359 57.3394 -17.4294 -0.0000 -0.0001 -69.9617 -0.3035 -26.3583 3.0813 0.0000 -0.0000 0.0000 0.0000 -0.0000 0.0000 0.3467 19.5114 -58.8677 25.1243 0.0000 0.0000 -7.1654 15.5223 -11.6738 0.6073 0.0000 0.0000 -7.1449 -2.1011 -3.6938 29.5154 0.0000 0.0000 -19.3997 -3.4823 9.9790 -4.1395 0.0000 -0.0000
 -2.9324 0.4360 23.0920 0.3774 -1.9552 108.2910 5.2117 -5.4912 -0.3271 0.8847 -2.5556 0.2440 5.2121 0.1363 15.1582 1.4540 5.4993 0.5737 -6.0771 9.1844 0.0416 -7.1485 -3.4908 -10.8076 10.7027 -11.3647 6.5657 34.5801 -44.9799 33.0040 -0.0000 0.0001 75.2565 12.3267 31.6435 2.7209 -0.0000 -0.0000 -0.0000 0.0000 -0.0000 0.0000 3.7088 17.7975 3.0472 26.7397 56.8285 -17.5065 -0.0000 -0.0001 -69.4583 -0.1642 -26.3918 3.1042 0.0000 0.0000 -0.0000 -0.0000 0.0000 0.0000 0.5546 19.3094 -59.4706 24.0475 0.0000 0.0000 -7.3559 16.1799 -10.0837 0.5591 0.0000 0.0000 -7.2211 -1.9349 -3.3376 29.0647 0.0000 0.0000 -19.1729 -3.7500 9.4954 -4.1047 0.0000 -0.0000
 -2.9766 0.5198 23.1097 0.3425 -1.7726 108.4378 5.1690 -5.3410 -0.3435 0.8746 -2.5509 0.2270 5.1932 -0.0420 14.9739 1.4182 5.3548 0.6091 -6.0667 9.2522 0.0450 -7.1839 -3.3981 -10.8318 10.7739 -11.3745 6.4690 34.2306 -45.5514 32.7232 -0.0000 0.0001 74.4913 12.5110 31.7191 2.9904 0.0000 -0.0000 -0.0000 0.0000 -0.0000 0.0000 3.7431 17.8424 2.9860 26.7103 56.3648 -17.5799 -0.0000 -0.0001 -68.9183 -0.0335 -26.4249 3.1352 -0.0000 -0.0000 0.0000 -0.0000 -0.0000 0.0000 0.7293 19.1571 -59.8594 23.0674 0.0000 0.0000 -7.7076 16.6741 -8.3259 0.5860 0.0000 0.0000 -7.2747 -1.7412 -2.9256 28.5778 0.0000 0.0000 -18.9202 -4.0295 8.9994 -4.0630 0.0000 -0.0000
 -3.0175 0.5995 23.1273 0.2835 -1.6486 108.5797 5.1636 -5.2337 -0.3538 0.8584 -2.5397 0.2172 5.1787 -0.2190 14.7895 1.3845 5.2201 0.6497 -6.0478 9.3015 0.0361 -7.2066 -3.3043 -10.8570 10.8490 -11.3707 6.3829 33.8753 -46.1286 32.4404 -0.0000 0.0001 73.6776 12.6627 31.7903 3.2470 0.0000 0.0000 -0.0000 -0.0000 -0.0000 0.0000 3.7718 17.8555 2.9110 26.6091 55.9759 -17.6187 -0.0000 -0.0001 -68.3402 0.0747 -26.4502 3.1759 0.0000 0.0000 0.0000 -0.0000 -0.0000 0.0000 0.9548 18.9475 -60.1084 22.1172 0.0000 0.0000 -8.1758 16.9286 -6.4148 0.6626 0.0000 0.0000 -7.2810 -1.5976 -2.5177 28.1038 0.0000 0.0000 -18.6761 -4.3020 8.4959 -4.0172 0.0000 -0.0000
 -3.0558 0.6765 23.1448 0.2609 -1.5604 108.7082 5.1889 -5.1069 -0.3541 0.8467 -2.5356 0.1994 5.1650 -0.3702 14.6265 1.3514 5.0969 0.6822 -6.0227 9.3265 0.0164 -7.2213 -3.2172 -10.8771 10.9211 -11.3660 6.3074 33.5235 -46.6941 32.1620 -0.0000 0.0001 72.8140 12.7639 31.8578 3.5102 0.0000 0.0000 -0.0000 0.0000 0.0000 0.0000 3.7763 17.8190 2.8356 26.4508 55.6832 -17.6283 -0.0000 -0.0001 -67.7151 0.1480 -26.4538 3.2262 -0.0000 0.0000 -0.0000 0.0000 -0.0000 0.0000 1.2121 18.7659 -60.1941 21.2426 0.0000 0.0000 -8.7456 16.8961 -4.4164 0.7525 0.0000 0.0000 -7.2270 -1.4308 -2.1358 27.6134 0.0000 0.0000 -18.4176 -4.5616 8.0193 -3.9719 0.0000 -0.0000
 -3.0929 0.7481 23.1617 0.1613 -1.4250 108.8551 5.1227 -5.0486 -0.3692 0.8369 -2.5188 0.1950 5.1609 -0.5130 14.4562 1.3267 4.9876 0.7114 -6.0024 9.3241 -0.0135 -7.2325 -3.1340 -10.8929 10.9822 -11.3875 6.2420 33.1608 -47.2211 31.8647 -0.0000 0.0001 71.9112 12.8120 31.9136 3.7812 0.0000 -0.0000 -0.0000 -0.0000 -0.0000 0.0000 3.7581 17.7494 2.7496 26.1972 55.4782 -17.5742 -0.0000 -0.0001 -67.0385 0.1667 -26.4269 3.2811 -0.0000 0.0000 -0.0000 0.0000 0.0000 -0.0000 1.4000 18.5050 -60.1701 20.3999 0.0000 0.0000 -9.3507 16.5526 -2.3811 0.8093 0.0000 0.0000 -7.2778 -1.3232 -1.8392 27.1964 0.0000 0.0000 -18.1896 -4.7950 7.5773 -3.9300 0.0000 -0.0000
